<?xml version="1.0" standalone="no"?>
<!DOCTYPE svg PUBLIC "-//W3C//DTD SVG 20010904//EN"
 "http://www.w3.org/TR/2001/REC-SVG-20010904/DTD/svg10.dtd">
<svg version="1.0" xmlns="http://www.w3.org/2000/svg"
 width="225.000000pt" height="225.000000pt" viewBox="0 0 225.000000 225.000000"
 preserveAspectRatio="xMidYMid meet">

<g transform="translate(0.000000,225.000000) scale(0.100000,-0.100000)"
fill="#000000" stroke="none">
<path d="M990 2239 c-166 -19 -366 -97 -515 -200 -86 -59 -213 -188 -273 -275
-86 -128 -153 -290 -183 -444 -16 -84 -16 -306 0 -390 46 -235 158 -446 324
-607 161 -157 337 -250 566 -299 93 -20 318 -23 411 -5 470 91 820 441 911
911 16 84 16 306 0 390 -44 228 -143 419 -303 586 -176 184 -424 305 -681 333
-108 12 -149 12 -257 0z m215 -504 c239 -63 415 -290 415 -538 0 -97 -18 -172
-65 -278 -19 -42 -35 -89 -35 -103 0 -82 98 -145 167 -108 34 18 73 71 73 99
0 40 -30 92 -67 118 l-34 23 22 16 c63 44 156 -3 182 -91 11 -38 20 -48 57
-67 76 -38 105 -136 56 -192 l-23 -28 -12 37 c-18 53 -63 87 -116 87 -37 0
-54 -8 -122 -58 -102 -76 -153 -105 -239 -135 -133 -48 -319 -52 -454 -12
-187 57 -359 207 -446 390 -50 105 -68 185 -67 300 0 155 44 265 152 379 113
119 241 175 401 176 55 0 121 -7 155 -15z"/>
</g>
</svg>
