<?xml version="1.0" standalone="no"?>
<!DOCTYPE svg PUBLIC "-//W3C//DTD SVG 20010904//EN"
 "http://www.w3.org/TR/2001/REC-SVG-20010904/DTD/svg10.dtd">
<svg version="1.0" xmlns="http://www.w3.org/2000/svg"
 width="300.000000pt" height="300.000000pt" viewBox="0 0 300.000000 300.000000"
 preserveAspectRatio="xMidYMid meet">
<metadata>
Created by potrace 1.10, written by Peter Selinger 2001-2011
</metadata>
<g transform="translate(0.000000,300.000000) scale(0.100000,-0.100000)"
fill="#ffffff" stroke="none">
<path d="M889 2984 c-9 -11 -15 -50 -17 -123 -3 -125 7 -156 53 -156 21 0 33
7 42 25 17 33 17 207 0 240 -15 30 -58 38 -78 14z"/>
<path d="M546 2871 c-10 -11 -15 -27 -12 -38 3 -10 44 -56 91 -103 79 -79 86
-83 112 -74 20 7 29 17 31 38 3 25 -9 41 -79 112 -88 88 -112 99 -143 65z"/>
<path d="M1350 2781 c-321 -68 -569 -311 -653 -638 -22 -87 -22 -97 -22 -743
0 -646 0 -656 22 -743 84 -328 335 -571 657 -638 130 -27 413 -26 545 1 151
31 297 108 415 219 115 109 196 252 239 418 22 87 22 97 22 743 0 644 0 656
-22 742 -86 335 -342 580 -672 642 -119 23 -417 21 -531 -3z m220 -174 l0 -92
-395 -395 -395 -395 0 105 0 105 382 382 c211 211 389 383 395 383 10 0 13
-25 13 -93z m345 68 c81 -21 208 -85 277 -140 123 -97 218 -245 258 -400 16
-64 20 -111 20 -257 l0 -178 -320 0 -320 0 0 164 c0 90 -5 187 -10 217 -12 62
-49 115 -103 144 l-37 20 0 229 0 229 88 -6 c48 -3 114 -13 147 -22z m-825
-290 c-162 -162 -296 -292 -298 -290 -8 8 31 122 65 189 90 178 235 306 422
372 36 13 75 24 86 24 14 0 -74 -94 -275 -295z m480 -77 c0 -62 -1 -63 -37
-83 -56 -31 -91 -82 -104 -150 -10 -60 -11 -60 -167 -217 l-157 -158 -105 0
-105 0 335 335 c184 184 336 335 337 335 2 0 3 -28 3 -62z m121 -187 l29 -29
0 -242 0 -242 -29 -29 c-41 -40 -91 -40 -132 0 l-29 29 0 242 0 242 29 29 c22
21 39 29 66 29 27 0 44 -8 66 -29z m-271 -336 l0 -85 -87 0 -88 0 85 85 c47
47 86 85 87 85 2 0 3 -38 3 -85z m19 -208 c26 -69 111 -127 186 -127 75 0 160
58 186 127 l9 23 325 0 325 0 0 -428 c0 -397 -2 -435 -20 -507 -55 -213 -196
-387 -395 -485 -135 -67 -180 -75 -430 -75 -250 0 -295 8 -430 75 -199 98
-340 272 -395 485 -18 72 -20 110 -20 507 l0 428 325 0 325 0 9 -23z"/>
<path d="M442 2538 c-7 -7 -12 -24 -12 -38 0 -45 15 -50 145 -50 130 0 145 5
145 50 0 45 -15 50 -145 50 -81 0 -125 -4 -133 -12z"/>
</g>
</svg>
