<?xml version="1.0" standalone="no"?>
<!DOCTYPE svg PUBLIC "-//W3C//DTD SVG 20010904//EN"
 "http://www.w3.org/TR/2001/REC-SVG-20010904/DTD/svg10.dtd">
<svg version="1.0" xmlns="http://www.w3.org/2000/svg"
 width="300.000000pt" height="300.000000pt" viewBox="0 0 300.000000 300.000000"
 preserveAspectRatio="xMidYMid meet">

<g transform="translate(0.000000,300.000000) scale(0.100000,-0.100000)"
fill="#000000" stroke="none">
<path d="M1976 2758 c-41 -37 -86 -166 -86 -248 0 -38 -5 -89 -12 -113 -8 -32
-8 -58 -1 -97 14 -70 1 -114 -56 -185 -51 -63 -73 -69 -113 -26 -30 31 -69 43
-199 62 -69 9 -93 9 -125 -2 -21 -7 -52 -12 -67 -10 -18 2 -40 -7 -63 -24 -41
-31 -70 -30 -96 6 -17 22 -22 53 -30 185 -5 88 -7 202 -4 254 4 66 2 103 -7
119 -14 28 -92 59 -151 60 -35 1 -45 -5 -87 -50 -98 -106 -129 -204 -129 -410
0 -81 40 -301 63 -346 8 -16 29 -74 47 -131 l33 -103 -17 -54 -17 -53 -70 -22
-69 -21 0 -38 c0 -29 5 -40 21 -47 16 -7 30 -38 56 -114 34 -106 35 -114 12
-203 -10 -40 -10 -56 1 -90 12 -38 24 -184 34 -392 3 -72 12 -169 33 -385 7
-69 10 -75 32 -78 l23 -4 -6 89 c-10 127 -15 234 -18 348 -2 55 -9 114 -16
131 -10 24 -11 52 -4 118 9 80 8 92 -15 157 -17 49 -22 80 -17 104 8 46 17 50
51 21 47 -39 112 -67 187 -80 l71 -12 7 -54 c26 -203 49 -271 108 -324 91 -82
258 -101 357 -40 94 57 172 209 181 349 2 44 9 86 14 93 6 7 33 12 64 12 61 0
133 22 183 56 l35 24 12 -23 c25 -50 25 -93 -2 -177 -22 -70 -25 -93 -19 -150
5 -54 3 -74 -10 -101 -13 -24 -16 -46 -11 -85 4 -36 1 -63 -10 -89 -11 -27
-13 -52 -8 -92 4 -32 1 -78 -6 -113 -7 -32 -9 -75 -6 -95 6 -30 11 -36 29 -33
25 3 23 -15 31 263 3 88 10 183 16 210 6 28 15 86 20 130 5 44 18 114 29 155
24 87 26 122 9 185 -11 40 -9 52 15 124 15 44 27 89 27 100 0 33 21 68 46 80
19 8 24 18 24 50 l0 39 -52 12 c-29 6 -72 14 -96 17 -53 7 -70 30 -79 102 -5
47 -3 56 44 138 65 114 90 191 110 344 18 142 19 158 11 295 -8 120 -33 184
-101 258 -40 42 -48 46 -90 46 -33 0 -53 -6 -71 -22z m118 -39 c67 -79 81
-116 89 -244 10 -172 10 -168 -6 -300 -20 -152 -36 -203 -103 -334 -56 -108
-58 -116 -39 -193 l7 -28 -108 0 c-130 -1 -176 -10 -269 -55 -43 -21 -93 -37
-130 -41 -57 -6 -62 -4 -99 25 -62 49 -131 66 -276 65 -69 0 -154 -4 -189 -8
-59 -7 -63 -6 -56 11 4 10 10 41 12 68 5 53 -26 177 -65 265 -23 51 -38 136
-54 298 -18 192 6 280 119 430 28 38 62 42 109 13 l32 -19 6 -194 c3 -106 6
-214 5 -240 -1 -150 83 -227 181 -166 19 12 53 25 75 29 22 4 58 13 80 20 35
10 46 9 85 -9 33 -15 58 -19 86 -15 35 4 45 1 81 -30 46 -38 102 -54 132 -38
28 15 120 144 127 177 3 16 7 70 8 119 7 182 22 276 56 353 38 84 61 93 104
41z m-524 -1359 c9 -36 23 -78 32 -95 21 -39 94 -108 135 -129 40 -20 48 -47
39 -135 -10 -113 -57 -222 -120 -280 -25 -24 -26 -24 -48 -5 -76 63 -88 78
-88 114 0 47 19 72 85 110 71 40 105 82 105 126 0 93 -93 128 -183 69 -24 -15
-28 -15 -66 4 -87 45 -157 12 -155 -74 1 -58 33 -106 94 -139 27 -15 56 -37
65 -49 23 -33 19 -84 -10 -110 -47 -42 -93 -77 -102 -77 -17 0 -62 55 -82 100
-10 25 -27 90 -35 145 -9 55 -19 112 -22 127 -5 24 -2 29 22 38 87 31 146 84
185 164 15 32 31 77 34 100 10 55 22 68 64 64 34 -3 35 -4 51 -68z m-120 -305
c19 -14 38 -25 43 -25 6 0 34 12 64 26 42 21 56 24 67 14 25 -20 -1 -56 -65
-90 -71 -38 -94 -34 -156 25 -30 29 -42 47 -37 59 9 23 45 20 84 -9z"/>
<path d="M2041 2566 c-7 -8 -19 -81 -27 -164 -15 -163 -43 -268 -95 -360 -18
-33 -29 -64 -27 -80 4 -27 4 -27 49 21 69 73 86 61 49 -35 -25 -65 -25 -65 0
-43 32 29 76 112 106 200 23 69 28 100 31 225 5 178 -8 243 -48 248 -14 2 -31
-4 -38 -12z"/>
<path d="M912 2545 c-11 -13 -27 -62 -37 -108 -17 -80 -17 -90 -1 -188 36
-213 78 -361 110 -389 14 -11 16 -9 16 12 0 14 -5 39 -11 56 -6 17 -9 43 -7
59 l3 28 44 -44 43 -44 -5 44 c-2 24 -17 73 -32 109 -27 61 -29 77 -37 264 -5
122 -12 204 -19 212 -17 21 -45 17 -67 -11z"/>
</g>
</svg>
