<?xml version="1.0" standalone="no"?>
<!DOCTYPE svg PUBLIC "-//W3C//DTD SVG 20010904//EN"
 "http://www.w3.org/TR/2001/REC-SVG-20010904/DTD/svg10.dtd">
<svg version="1.0" xmlns="http://www.w3.org/2000/svg"
 width="300.000000pt" height="300.000000pt" viewBox="0 0 300.000000 300.000000"
 preserveAspectRatio="xMidYMid meet">
<metadata>
Created by potrace 1.10, written by Peter Selinger 2001-2011
</metadata>
<g transform="translate(0.000000,300.000000) scale(0.100000,-0.100000)"
fill="#ffffff" stroke="none">
<path d="M1267 2890 c-333 -59 -582 -281 -684 -607 l-28 -88 0 -695 0 -695 28
-88 c92 -293 292 -494 584 -584 86 -26 95 -27 333 -27 238 0 247 1 333 27 291
90 493 292 584 584 l28 88 0 695 0 695 -28 88 c-92 293 -295 496 -584 583 -82
25 -104 27 -303 30 -118 1 -237 -1 -263 -6z m183 -178 l0 -87 -400 -400 -400
-400 0 100 0 100 387 387 c214 214 394 388 400 388 10 0 13 -24 13 -88z m337
64 c256 -67 465 -273 539 -535 11 -38 18 -116 21 -248 l5 -193 -326 0 -326 0
0 189 c0 114 -4 201 -11 222 -18 53 -55 96 -99 115 l-40 18 0 229 0 230 88 -6
c49 -3 115 -12 149 -21z m-822 -286 c-160 -160 -292 -285 -294 -279 -6 18 47
155 86 222 52 90 191 223 281 270 79 42 166 75 197 76 13 1 -78 -96 -270 -289z
m485 -83 l0 -63 -40 -18 c-61 -27 -110 -105 -110 -175 0 -20 -36 -62 -162
-188 l-163 -163 -100 0 -100 0 335 335 c184 184 336 335 337 335 2 0 3 -28 3
-63z m99 -171 c47 -25 51 -49 51 -287 0 -171 -3 -226 -14 -248 -35 -66 -137
-66 -172 0 -20 39 -20 462 0 498 26 47 84 63 135 37z m-249 -351 l0 -85 -87 0
-88 0 85 85 c47 47 86 85 87 85 2 0 3 -38 3 -85z m24 -225 c35 -80 135 -125
223 -101 62 16 107 51 129 101 l18 40 329 0 328 0 -4 -442 c-3 -376 -6 -451
-20 -499 -79 -266 -277 -462 -541 -536 -80 -23 -470 -26 -556 -4 -227 57 -426
223 -519 435 -53 122 -54 131 -58 604 l-4 442 328 0 329 0 18 -40z"/>
<path d="M290 1783 c-88 -60 -273 -219 -281 -241 -14 -35 -5 -89 18 -115 23
-25 243 -201 271 -216 40 -21 82 -13 119 24 l34 34 -3 236 -3 237 -33 29 c-38
34 -84 38 -122 12z m60 -283 c0 -104 -3 -190 -7 -190 -15 0 -244 182 -241 191
4 11 230 188 241 189 4 0 7 -85 7 -190z"/>
<path d="M2615 1791 c-11 -5 -29 -19 -40 -31 -19 -21 -20 -38 -23 -257 l-3
-234 34 -34 c37 -37 79 -45 120 -24 28 16 247 191 270 216 23 26 32 80 18 115
-8 22 -193 181 -281 241 -26 18 -62 21 -95 8z m170 -195 c63 -49 115 -93 115
-97 0 -9 -231 -189 -242 -189 -5 0 -8 86 -8 191 0 118 4 189 10 187 5 -1 61
-43 125 -92z"/>
</g>
</svg>
