<?xml version="1.0" standalone="no"?>
<!DOCTYPE svg PUBLIC "-//W3C//DTD SVG 20010904//EN"
 "http://www.w3.org/TR/2001/REC-SVG-20010904/DTD/svg10.dtd">
<svg version="1.0" xmlns="http://www.w3.org/2000/svg"
 width="256.000000pt" height="256.000000pt" viewBox="0 0 256.000000 256.000000"
 preserveAspectRatio="xMidYMid meet">

<g transform="translate(0.000000,256.000000) scale(0.100000,-0.100000)"
fill="#000000" stroke="none">
<path d="M319 2297 c-18 -12 -44 -38 -56 -56 -23 -34 -23 -37 -23 -373 0 -378
1 -385 66 -434 l37 -29 343 -3 c328 -3 345 -2 383 17 67 35 85 71 89 179 l4
92 -56 0 -56 0 0 -70 c0 -116 18 -110 -350 -110 -297 0 -311 1 -330 20 -19 19
-20 33 -20 334 0 314 0 315 22 330 19 14 68 16 330 16 365 0 348 5 348 -108
l0 -68 56 0 56 0 -4 91 c-3 83 -6 95 -32 129 -49 65 -56 66 -434 66 -336 0
-339 0 -373 -23z"/>
<path d="M1485 2297 c-61 -35 -85 -85 -85 -182 l0 -80 55 0 55 0 0 65 c0 117
-22 110 349 110 295 0 319 -1 334 -18 15 -16 17 -55 17 -335 0 -368 7 -347
-110 -347 l-65 0 0 -55 0 -55 78 0 c91 0 142 21 179 72 l23 33 0 356 0 356
-27 35 c-51 67 -57 68 -430 68 -327 0 -334 -1 -373 -23z"/>
<path d="M1065 1966 c-51 -22 -70 -52 -70 -108 0 -43 4 -53 33 -79 26 -23 42
-29 78 -29 39 0 51 5 80 34 47 47 48 102 2 150 -38 40 -81 51 -123 32z"/>
<path d="M1423 1969 c-17 -5 -43 -24 -58 -41 -38 -44 -31 -110 14 -150 45 -40
111 -40 151 0 85 85 7 223 -107 191z"/>
<path d="M1400 1609 c0 -147 63 -209 210 -209 l76 0 0 55 1 55 -68 0 c-94 0
-109 15 -109 108 l0 68 -55 0 -55 0 0 -77z"/>
<path d="M1814 1556 c-70 -31 -87 -120 -35 -178 26 -29 36 -33 79 -33 39 0 56
5 76 24 59 55 51 140 -16 181 -38 23 -61 24 -104 6z"/>
<path d="M1784 1186 c-29 -29 -34 -41 -34 -80 0 -36 6 -52 29 -78 26 -29 35
-33 80 -33 44 0 55 4 82 32 26 26 32 40 33 78 1 42 -3 50 -36 81 -53 48 -106
48 -154 0z"/>
<path d="M335 1144 c-94 -49 -95 -53 -95 -452 0 -336 0 -339 23 -373 12 -18
38 -44 56 -56 34 -23 37 -23 381 -23 343 0 347 0 380 22 62 43 75 70 78 172
l4 92 -56 0 -56 0 0 -68 c0 -113 18 -108 -354 -108 -314 0 -315 0 -330 22 -14
19 -16 68 -16 330 0 295 1 309 20 328 19 19 33 20 330 20 368 0 350 6 350
-109 l0 -70 55 0 55 0 0 80 c0 93 -20 144 -72 181 -33 23 -35 23 -378 26 -299
2 -349 0 -375 -14z"/>
<path d="M1485 1137 c-61 -35 -85 -85 -85 -184 l0 -82 55 0 55 0 0 70 c0 94
15 109 110 109 l70 0 0 55 0 55 -82 0 c-67 0 -90 -5 -123 -23z"/>
<path d="M2034 1106 l0 -56 68 0 c113 0 108 18 108 -353 0 -291 -1 -315 -18
-330 -16 -15 -54 -17 -330 -17 -369 0 -352 -5 -352 108 l0 68 -56 0 -56 0 4
-91 c3 -83 6 -95 32 -129 49 -65 56 -66 434 -66 336 0 339 0 373 23 18 12 44
38 56 56 23 34 23 37 23 378 0 382 1 379 -67 430 -33 25 -46 28 -128 31 l-91
4 0 -56z"/>
<path d="M1028 781 c-29 -26 -33 -35 -33 -80 0 -44 4 -55 32 -82 27 -27 39
-32 79 -32 41 0 51 4 81 36 47 52 47 105 -1 153 -29 29 -41 34 -80 34 -36 0
-52 -6 -78 -29z"/>
<path d="M1374 776 c-46 -46 -48 -100 -4 -149 35 -41 79 -52 123 -33 52 22 72
51 72 108 0 43 -4 53 -33 79 -26 23 -42 29 -78 29 -39 0 -51 -5 -80 -34z"/>
</g>
</svg>
